<?xml version="1.0" encoding="utf-8"?>
<!-- Generator: Adobe Illustrator 21.0.2, SVG Export Plug-In . SVG Version: 6.00 Build 0)  -->
<svg version="1.1" id="Layer_1" xmlns="http://www.w3.org/2000/svg" xmlns:xlink="http://www.w3.org/1999/xlink" x="0px" y="0px"
   viewBox="0 0 841.9 595.3" style="enable-background:new 0 0 841.9 595.3;" xml:space="preserve">
<style type="text/css">
  .st0{fill:#FFFFFF;}
</style>
<path class="st0" d="M622.1,212.8c11.5,27,17.3,55.3,17.3,84.8c0,29.6-5.8,57.9-17.3,84.8c-11.5,27-27.1,50.2-46.6,69.7
  s-42.7,35-69.7,46.6c-27,11.5-55.3,17.3-84.8,17.3c-29.6,0-57.9-5.8-84.8-17.3c-27-11.5-50.2-27.1-69.7-46.6s-35-42.7-46.6-69.7
  c-11.5-27-17.3-55.3-17.3-84.8c0-29.6,5.8-57.9,17.3-84.8c11.5-27,27.1-50.2,46.6-69.7s42.7-35,69.7-46.6
  c27-11.5,55.3-17.3,84.8-17.3c29.6,0,57.9,5.8,84.8,17.3c27,11.5,50.2,27.1,69.7,46.6S610.6,185.8,622.1,212.8z M612.3,378.3
  c11-25.7,16.5-52.6,16.5-80.7c0-28.1-5.5-55-16.5-80.7c-11-25.7-25.7-47.8-44.3-66.3s-40.6-33.3-66.3-44.3
  c-25.7-11-52.6-16.5-80.7-16.5c-28.1,0-55,5.5-80.7,16.5c-25.7,11-47.8,25.7-66.3,44.3c-18.5,18.5-33.3,40.6-44.3,66.3
  c-11,25.7-16.5,52.6-16.5,80.7c0,28.1,5.5,55,16.5,80.7c11,25.7,25.7,47.8,44.3,66.3c18.5,18.5,40.6,33.3,66.3,44.3
  c25.7,11,52.6,16.5,80.7,16.5c28.1,0,55-5.5,80.7-16.5c25.7-11,47.8-25.7,66.3-44.3C586.5,426.1,601.3,404,612.3,378.3z
   M269.8,349.3l-20.2,6.8c3.6,9.8,7.6,18.9,11.9,27.3l-13.9,8c-15.9-29.3-23.9-60.5-23.9-93.9c0-33.3,8-64.6,23.9-93.9l13.9,8
  c-4.9,9.1-8.9,18.2-11.9,27.3l20,6.8c-5.7,16.3-8.5,33.5-8.5,51.7C261.1,315.4,264,332.6,269.8,349.3z M415.6,478.6v16.1
  c-33.8-1-65.1-9.9-93.9-26.7c-28.8-16.8-51.8-39.2-69-67.2l14.1-8.3c4.7,8,10.6,16,17.8,24.1l15.8-13.9c24.1,27.3,54,44.5,89.7,51.7
  l-4.1,21C396.7,477.3,406.5,478.4,415.6,478.6z M415.6,100.7v16.1c-10.6,0.3-20.4,1.4-29.5,3.2l4.1,21c-35.8,6.8-65.7,24-89.7,51.4
  l-15.8-13.7c-6.2,6.8-12.1,14.8-17.8,23.9l-13.9-8c17.2-28,40.1-50.3,68.8-67.2C350.4,110.5,381.7,101.6,415.6,100.7z M538.3,257.4
  l-56.8,19.5c2.3,6.8,3.4,13.7,3.4,20.7c0,7-1.1,13.9-3.4,20.7l56.6,19.5c-5,15-13,28.7-23.9,41.2L469,339.6
  c-9.3,10.9-21.2,17.8-35.8,20.7l11.7,58.8c-8.5,1.6-16.4,2.4-23.9,2.4c-7.5,0-15.4-0.8-23.9-2.4l11.7-58.8
  c-14.6-2.9-26.6-9.8-35.8-20.7l-45.1,39.5C317,366.6,309,352.8,304,337.9l56.6-19.5c-2.3-6.8-3.4-13.7-3.4-20.7
  c0-7,1.1-13.9,3.4-20.7l-56.8-19.5c5.4-15.1,13.4-28.8,24.1-41.2l45.1,39.5c9.6-11.1,21.5-18,35.8-21l-11.7-58.5
  c7.1-1.6,15.1-2.4,23.9-2.4c8.8,0,16.7,0.8,23.9,2.4l-11.7,58.5c14.3,2.9,26.2,9.9,35.8,21l45.1-39.5
  C524.9,228.6,532.9,242.3,538.3,257.4z M589,194.5l-13.9,8c-5.7-9.1-11.6-17.1-17.8-23.9l-15.8,13.7c-24.1-27.5-54-44.6-89.7-51.4
  l4.1-21c-9.1-1.8-18.9-2.8-29.5-3.2v-16.1c34,1,65.3,9.9,93.9,26.7C548.8,144.2,571.8,166.6,589,194.5z M575.1,392.5l14.1,8.3
  c-17.2,28-40.2,50.3-69,67.2c-28.8,16.8-60.1,25.7-93.9,26.7v-16.1c9.1-0.2,18.9-1.2,29.5-3.2l-4.1-21c35.8-7.2,65.7-24.4,89.7-51.7
  l15.8,13.9C564.4,408.5,570.4,400.5,575.1,392.5z M618.2,297.6c0,33.3-8,64.6-23.9,93.9l-13.9-8c4.4-8.4,8.4-17.6,11.9-27.3
  l-20.2-6.8c5.9-16.7,8.8-34,8.8-51.7c0-18.2-2.8-35.4-8.5-51.7l20-6.8c-3.1-9.1-7.1-18.2-11.9-27.3l13.9-8
  C610.3,233,618.2,264.3,618.2,297.6z"/>
</svg>
